<svg width="24" height="24" xmlns="http://www.w3.org/2000/svg">

 <g>
  <title>background</title>
  <rect fill="none" id="canvas_background" height="602" width="802" y="-1" x="-1"/>
 </g>
 <g>
  <title>Layer 1</title>
  <path id="svg_1" fill="#f4f4f4" d="m8.75,2c-0.41421,0 -0.75,0.33579 -0.75,0.75l0,2.25l-2.25,0c-0.41421,0 -0.75,0.33579 -0.75,0.75l0,4.7645l-1.46052,0.5348c-0.1971,0.0721 -0.35495,0.2236 -0.43517,0.4176c-0.08023,0.1939 -0.0755,0.4126 0.01303,0.603l2.3344,5.018c0.16551,-0.0546 0.34118,-0.085 0.52235,-0.0877c0.77675,-0.0115 1.46738,0.4903 1.69723,1.231c0.0013,0.0038 0.00447,0.0132 0.0096,0.0272c0.0121,0.0333 0.03427,0.0907 0.06729,0.1641c0.06814,0.1514 0.1708,0.3445 0.30804,0.5275c0.27556,0.3674 0.56402,0.55 0.94375,0.55c0.37954,0 0.66752,-0.1824 0.94263,-0.5495c0.13707,-0.1829 0.23957,-0.3759 0.30757,-0.5272c0.033,-0.0734 0.0551,-0.1308 0.0672,-0.164c0.0051,-0.0141 0.0083,-0.0234 0.0095,-0.0273c0.2265,-0.7311 0.9025,-1.2309 1.6692,-1.232c0.7667,-0.0011 1.4441,0.497 1.6726,1.2275c0.0013,0.0038 0.0045,0.0132 0.0098,0.0276c0.0122,0.0334 0.0346,0.091 0.0679,0.1646c0.0686,0.1518 0.1719,0.3454 0.3098,0.529c0.2776,0.3694 0.5669,0.5513 0.9438,0.5513c0.3767,0 0.6655,-0.1817 0.9426,-0.5508c0.1378,-0.1835 0.2409,-0.377 0.3095,-0.5287c0.0332,-0.0736 0.0555,-0.1312 0.0677,-0.1645c0.0052,-0.0142 0.0084,-0.0236 0.0097,-0.0275c0.2313,-0.741 0.9237,-1.2418 1.7011,-1.2282c0.2072,0.0036 0.4071,0.0435 0.5927,0.1143l2.4678,-5.0308c0.0941,-0.1918 0.1019,-0.4147 0.0215,-0.6127c-0.0805,-0.1979 -0.2415,-0.3522 -0.4428,-0.424l-1.6698,-0.5957l0,-4.7014c0,-0.41421 -0.3358,-0.75 -0.75,-0.75l-2.25,0l0,-2.25c0,-0.41421 -0.3358,-0.75 -0.75,-0.75l-6.5,0zm5.75,3l-5,0l0,-1.5l5,0l0,1.5zm3,1.5l0,3.41615l-4.3969,-1.56882c-0.715,-0.25511 -1.4968,-0.25188 -2.2097,0.00915l-4.3934,1.60873l0,-3.46521l11,0z"/>
  <path id="svg_2" fill="#f4f4f4" d="m18.7267,18.5635l-0.0025,-0.0087c-0.087,-0.3224 -0.3769,-0.5488 -0.7111,-0.5547c-0.3349,-0.0059 -0.633,0.2111 -0.7305,0.5313l-0.0004,0.0013l-0.0031,0.0092c-0.0038,0.0115 -0.0105,0.0311 -0.0202,0.0578c-0.0195,0.0533 -0.051,0.1338 -0.0954,0.2323c-0.0899,0.1989 -0.2281,0.4605 -0.4212,0.7176c-0.387,0.5154 -0.9393,0.9504 -1.7423,0.9504c-0.8031,0 -1.3558,-0.4351 -1.7432,-0.9506c-0.1933,-0.2572 -0.3317,-0.5188 -0.4216,-0.7177c-0.0446,-0.0985 -0.076,-0.179 -0.0956,-0.2324c-0.0098,-0.0266 -0.0165,-0.0463 -0.0203,-0.0578l-0.0031,-0.0094c-0.0001,-0.0002 0,0.0001 0,0c-0.0962,-0.3161 -0.3882,-0.5326 -0.7187,-0.5321c-0.3304,0.0005 -0.6216,0.2171 -0.717,0.5333l-0.0003,0.001l-0.003,0.0091c-0.0037,0.0115 -0.0104,0.0311 -0.0201,0.0577c-0.0193,0.0533 -0.0505,0.1337 -0.0948,0.2321c-0.0893,0.1988 -0.2269,0.4601 -0.4194,0.717c-0.3856,0.5145 -0.93738,0.9498 -1.7429,0.9498c-0.8056,0 -1.3578,-0.4354 -1.74375,-0.95c-0.19275,-0.257 -0.33049,-0.5183 -0.41996,-0.7171c-0.04429,-0.0985 -0.07555,-0.1789 -0.09497,-0.2322c-0.00968,-0.0266 -0.01634,-0.0462 -0.02013,-0.0577l-0.00366,-0.0113c-0.09723,-0.3196 -0.39432,-0.5366 -0.72863,-0.5316c-0.33394,0.0049 -0.62419,0.23 -0.71228,0.5519l-0.00267,0.009c-0.00311,0.0103 -0.00885,0.0286 -0.01749,0.0539c-0.01732,0.0507 -0.04597,0.1283 -0.08795,0.2237c-0.08475,0.1926 -0.21919,0.4473 -0.41624,0.6987c-0.38419,0.49 -0.99583,0.9627 -2.00227,0.9627c-0.41421,0 -0.75,0.3358 -0.75,0.75c0,0.4142 0.33579,0.75 0.75,0.75c1.57356,0 2.58692,-0.7773 3.18273,-1.5373c0.02319,-0.0295 0.04577,-0.0591 0.06774,-0.0886c0.01819,0.0253 0.03678,0.0506 0.05578,0.0759c0.55155,0.7354 1.49935,1.55 2.94375,1.55c1.4445,0 2.392,-0.8147 2.9432,-1.5502c0.0194,-0.0259 0.0383,-0.0517 0.0569,-0.0775c0.0187,0.026 0.0379,0.0522 0.0576,0.0783c0.552,0.7345 1.4999,1.5494 2.9423,1.5494c1.4424,0 2.3901,-0.815 2.9418,-1.5496c0.0187,-0.0251 0.0371,-0.05 0.0551,-0.075c0.0214,0.0288 0.0434,0.0577 0.066,0.0866c0.5954,0.7614 1.6093,1.538 3.1871,1.538c0.4142,0 0.75,-0.3358 0.75,-0.75c0,-0.4142 -0.3358,-0.75 -0.75,-0.75c-1.0122,0 -1.6233,-0.4734 -2.0054,-0.962c-0.1963,-0.2509 -0.3297,-0.5052 -0.4137,-0.6975c-0.0416,-0.0952 -0.0699,-0.1727 -0.087,-0.2232c-0.0085,-0.0252 -0.0141,-0.0435 -0.0172,-0.0538z"/>
 </g>
</svg>