<?xml version="1.0"?>
<svg width="28" height="28" xmlns="http://www.w3.org/2000/svg" xmlns:svg="http://www.w3.org/2000/svg">
 <g class="layer">
  <title>Layer 1</title>
  <path d="m7.25,2c-1.79493,0 -3.25,1.45508 -3.25,3.25l0,17.4997c0,1.7949 1.45507,3.25 3.25,3.25l9.5677,0l-2.1567,-2.1568c-0.8787,-0.8786 -0.8787,-2.3033 0,-3.1819c0.8786,-0.8787 2.3033,-0.8787 3.1819,0l1.4071,1.407l4.409,-4.409c0.1063,-0.1063 0.2206,-0.1998 0.341,-0.2803l0,-12.1287c0,-1.79493 -1.4551,-3.25 -3.25,-3.25l-13.5,0zm3.25,6.75c0,0.69036 -0.55964,1.25 -1.25,1.25c-0.69036,0 -1.25,-0.55964 -1.25,-1.25c0,-0.69036 0.55964,-1.25 1.25,-1.25c0.69036,0 1.25,0.55964 1.25,1.25zm-1.25,6.4998c-0.69036,0 -1.25,-0.5596 -1.25,-1.25c0,-0.6903 0.55964,-1.25 1.25,-1.25c0.69036,0 1.25,0.5597 1.25,1.25c0,0.6904 -0.55964,1.25 -1.25,1.25zm0,5.2502c-0.69036,0 -1.25,-0.5596 -1.25,-1.25c0,-0.6904 0.55964,-1.25 1.25,-1.25c0.69036,0 1.25,0.5596 1.25,1.25c0,0.6904 -0.55964,1.25 -1.25,1.25zm3.5,-12.5l6.5,0c0.4142,0 0.75,0.33579 0.75,0.75c0,0.41421 -0.3358,0.75 -0.75,0.75l-6.5,0c-0.4142,0 -0.75,-0.33579 -0.75,-0.75c0,-0.41421 0.3358,-0.75 0.75,-0.75zm-0.75,5.9998c0,-0.4142 0.3358,-0.75 0.75,-0.75l6.5,0c0.4142,0 0.75,0.3358 0.75,0.75c0,0.4142 -0.3358,0.75 -0.75,0.75l-6.5,0c-0.4142,0 -0.75,-0.3358 -0.75,-0.75zm0.75,4.5002l6.5,0c0.4142,0 0.75,0.3358 0.75,0.75c0,0.4142 -0.3358,0.75 -0.75,0.75l-6.5,0c-0.4142,0 -0.75,-0.3358 -0.75,-0.75c0,-0.4142 0.3358,-0.75 0.75,-0.75z" fill="#f4f4f4" id="svg_1"/>
  <path d="m19.7803,25.7803l6,-6c0.2929,-0.2929 0.2929,-0.7677 0,-1.0606c-0.2929,-0.2929 -0.7677,-0.2929 -1.0606,0l-5.4697,5.4696l-2.4677,-2.4677c-0.2929,-0.2929 -0.7678,-0.2929 -1.0607,0c-0.2929,0.2929 -0.2929,0.7678 0,1.0607l2.9981,2.998c0.1406,0.1407 0.3314,0.2197 0.5303,0.2197c0.1989,0 0.3897,-0.079 0.5303,-0.2197z" fill="#f4f4f4" id="svg_2"/>
 </g>
</svg>