<?xml version="1.0"?>
<svg width="28" height="28" xmlns="http://www.w3.org/2000/svg" xmlns:svg="http://www.w3.org/2000/svg">
 <g class="layer">
  <title>Layer 1</title>
  <path d="m4,5.25c0,-1.79492 1.45507,-3.25 3.25,-3.25l13.5,0c1.7949,0 3.25,1.45507 3.25,3.25l0,12.1287c-0.1204,0.0805 -0.2347,0.174 -0.341,0.2803l-1.159,1.159l0,-13.568c0,-0.9665 -0.7835,-1.75 -1.75,-1.75l-13.5,0c-0.9665,0 -1.75,0.7835 -1.75,1.75l0,17.4997c0,0.9665 0.7835,1.75 1.75,1.75l8.0677,0l1.5,1.5l-9.5677,0c-1.79493,0 -3.25,-1.4551 -3.25,-3.25l0,-17.4997z" fill="#f2f2f2" id="svg_1"/>
  <path d="m10.5,8.75c0,0.69036 -0.55964,1.25 -1.25,1.25c-0.69036,0 -1.25,-0.55964 -1.25,-1.25c0,-0.69036 0.55964,-1.25 1.25,-1.25c0.69036,0 1.25,0.55964 1.25,1.25z" fill="#f2f2f2" id="svg_2"/>
  <path d="m9.25,15.2498c0.69036,0 1.25,-0.5596 1.25,-1.25c0,-0.6903 -0.55964,-1.25 -1.25,-1.25c-0.69036,0 -1.25,0.5597 -1.25,1.25c0,0.6904 0.55964,1.25 1.25,1.25z" fill="#f2f2f2" id="svg_3"/>
  <path d="m9.25,20.5c0.69036,0 1.25,-0.5596 1.25,-1.25c0,-0.6904 -0.55964,-1.25 -1.25,-1.25c-0.69036,0 -1.25,0.5596 -1.25,1.25c0,0.6904 0.55964,1.25 1.25,1.25z" fill="#f2f2f2" id="svg_4"/>
  <path d="m12.75,8c-0.4142,0 -0.75,0.33579 -0.75,0.75c0,0.41421 0.3358,0.75 0.75,0.75l6.5,0c0.4142,0 0.75,-0.33579 0.75,-0.75c0,-0.41421 -0.3358,-0.75 -0.75,-0.75l-6.5,0z" fill="#f2f2f2" id="svg_5"/>
  <path d="m12,13.9998c0,-0.4142 0.3358,-0.75 0.75,-0.75l6.5,0c0.4142,0 0.75,0.3358 0.75,0.75c0,0.4142 -0.3358,0.75 -0.75,0.75l-6.5,0c-0.4142,0 -0.75,-0.3358 -0.75,-0.75z" fill="#f2f2f2" id="svg_6"/>
  <path d="m12.75,18.5c-0.4142,0 -0.75,0.3358 -0.75,0.75c0,0.4142 0.3358,0.75 0.75,0.75l6.5,0c0.4142,0 0.75,-0.3358 0.75,-0.75c0,-0.4142 -0.3358,-0.75 -0.75,-0.75l-6.5,0z" fill="#f2f2f2" id="svg_7"/>
  <path d="m25.7803,19.7803l-6,6c-0.1406,0.1407 -0.3314,0.2197 -0.5303,0.2197c-0.1989,0 -0.3897,-0.079 -0.5303,-0.2197l-2.9981,-2.998c-0.2929,-0.2929 -0.2929,-0.7678 0,-1.0607c0.2929,-0.2929 0.7678,-0.2929 1.0607,0l2.4677,2.4677l5.4697,-5.4696c0.2929,-0.2929 0.7677,-0.2929 1.0606,0c0.2929,0.2929 0.2929,0.7677 0,1.0606z" fill="#f2f2f2" id="svg_8"/>
 </g>
</svg>